<svg id="Layer_1" data-name="Layer 1" xmlns="http://www.w3.org/2000/svg" viewBox="0 0 390.15 331.57"><defs><style>.cls-1{fill:none;}.cls-2{fill:#f6d365;}</style></defs><polygon class="cls-1" points="255.84 177.09 255.84 177.1 255.84 177.1 255.84 177.09"/><path class="cls-1" d="M72.85,367.92H333.61V346.44a33.06,33.06,0,0,0-5.76-1c-4.67-.53-10-1.14-12.85-5.11s-1.82-9.13-.89-13.71c.57-2.88,1.17-5.85.62-7.55s-2.76-3.61-4.75-5.43c-3.53-3.22-7.53-6.87-7.53-11.92s4-8.7,7.52-11.92h0c2-1.82,4.26-3.88,4.76-5.43s-.05-4.67-.63-7.55c-.92-4.58-2-9.78.9-13.71s8.18-4.58,12.85-5.11c2.89-.33,5.88-.67,7.29-1.7s2.6-3.7,3.79-6.32c2-4.32,4.17-9.2,8.9-10.74,4.55-1.48,8.93,1,13.16,3.37,2.6,1.46,5.28,3,7.14,3s4.54-1.52,7.14-3c4.24-2.39,8.61-4.85,13.17-3.37,4.72,1.54,6.94,6.42,8.9,10.74,1.19,2.62,2.42,5.33,3.79,6.32s4.39,1.37,7.28,1.7c4.68.53,10,1.14,12.86,5.11s1.81,9.13.89,13.71c-.58,2.88-1.18,5.85-.63,7.55s2.77,3.61,4.76,5.43c3.53,3.22,7.52,6.87,7.52,11.92s-4,8.7-7.52,11.91c-2,1.82-4.26,3.89-4.76,5.44s.05,4.67.63,7.55c.92,4.58,2,9.78-.89,13.71s-8.19,4.58-12.86,5.11c-.73.09-1.47.17-2.19.27v22.2H435v-236H72.85Zm74.09-189.21H340.65a7,7,0,0,1,0,14H146.94a7,7,0,0,1,0-14Zm0,49.56H261.82a7,7,0,0,1,0,14H146.94a7,7,0,0,1,0-14Zm0,60.81h89.25a7,7,0,0,1,0,14H146.94a7,7,0,0,1,0-14Z" transform="translate(-58.85 -117.89)"/><path class="cls-2" d="M442,117.89H65.85a7,7,0,0,0-7,7v250a7,7,0,0,0,7,7H333.61v60.57a7,7,0,0,0,11.95,5l26-26,22.67,22.67a7,7,0,0,0,12-4.95v-57.2H442a7,7,0,0,0,7-7v-250a7,7,0,0,0-7-7ZM314.69,295h0l4.72,5.17c3.12-2.84,7-6.38,8.64-11.45s.63-10.43-.22-14.64c-.11-.51-.25-1.2-.37-1.9.72-.1,1.44-.18,2-.24,4.26-.49,9.55-1.09,13.93-4.29s6.54-8,8.31-11.86c.22-.5.53-1.17.85-1.84l1.59.89c3.78,2.13,8.48,4.78,14,4.78s10.23-2.65,14-4.79l1.59-.88c.32.67.62,1.34.85,1.85,1.76,3.87,4,8.69,8.3,11.85s9.68,3.8,13.93,4.29c.54.06,1.26.14,2,.24-.13.7-.27,1.39-.37,1.9-.85,4.21-1.91,9.45-.22,14.64s5.52,8.61,8.63,11.45c.46.42,1.1,1,1.7,1.58-.6.58-1.24,1.16-1.7,1.57-3.11,2.85-7,6.38-8.64,11.46s-.62,10.43.23,14.64c.1.51.24,1.2.37,1.9-.73.1-1.45.18-2,.24-4.25.49-9.55,1.09-13.93,4.29s-6.54,8-8.3,11.86c-.23.5-.53,1.17-.85,1.84l-1.6-.89c-3.78-2.13-8.48-4.78-14-4.78s-10.23,2.65-14,4.79l-1.58.88c-.32-.67-.63-1.35-.86-1.85-1.76-3.87-3.94-8.69-8.3-11.85s-9.67-3.8-13.93-4.29c-.54-.06-1.26-.14-2-.24.12-.7.26-1.39.37-1.9.85-4.21,1.9-9.45.22-14.64s-5.52-8.61-8.64-11.46c-.46-.41-1.09-1-1.69-1.57.6-.58,1.23-1.16,1.69-1.58Zm61.86,111.57a7,7,0,0,0-9.9,0h0l-19,19V364.12l.21.08c4.56,1.49,8.93-1,13.17-3.36,2.6-1.46,5.28-3,7.14-3s4.54,1.52,7.15,3c3.34,1.88,6.77,3.81,10.3,3.81a9.18,9.18,0,0,0,2.85-.45,9.65,9.65,0,0,0,3.79-2.32v60.33ZM435,367.92H406.22v-22.2c.72-.1,1.46-.18,2.19-.27,4.67-.53,10-1.14,12.86-5.11s1.81-9.13.89-13.71c-.58-2.88-1.18-5.85-.63-7.55s2.77-3.62,4.76-5.44c3.53-3.21,7.52-6.86,7.52-11.91s-4-8.7-7.52-11.92c-2-1.82-4.26-3.88-4.76-5.43s.05-4.67.63-7.55c.92-4.58,2-9.78-.89-13.71s-8.18-4.58-12.86-5.11c-2.89-.33-5.88-.67-7.28-1.7s-2.6-3.7-3.79-6.32c-2-4.32-4.18-9.2-8.9-10.74-4.56-1.48-8.93,1-13.17,3.37-2.6,1.46-5.28,3-7.14,3s-4.54-1.52-7.14-3c-4.23-2.39-8.61-4.85-13.16-3.37-4.73,1.54-6.94,6.42-8.9,10.74-1.19,2.62-2.42,5.33-3.79,6.32s-4.4,1.37-7.29,1.7c-4.67.53-10,1.14-12.85,5.11s-1.82,9.13-.9,13.71c.58,2.88,1.18,5.85.63,7.55S312,288,310,289.81h0c-3.52,3.22-7.52,6.87-7.52,11.92s4,8.7,7.53,11.92c2,1.82,4.25,3.88,4.75,5.43s-.05,4.67-.62,7.55c-.93,4.58-2,9.77.89,13.71s8.18,4.58,12.85,5.11a33.06,33.06,0,0,1,5.76,1v21.48H72.85v-236H435Z" transform="translate(-58.85 -117.89)"/><path class="cls-2" d="M146.94,192.71H340.65a7,7,0,0,0,0-14H146.94a7,7,0,0,0,0,14Z" transform="translate(-58.85 -117.89)"/><path class="cls-2" d="M146.94,242.27H261.82a7,7,0,0,0,0-14H146.94a7,7,0,0,0,0,14Z" transform="translate(-58.85 -117.89)"/><path class="cls-2" d="M146.94,303.08h89.25a7,7,0,0,0,0-14H146.94a7,7,0,0,0,0,14Z" transform="translate(-58.85 -117.89)"/></svg>