<svg id="Capa_1" data-name="Capa 1" xmlns="http://www.w3.org/2000/svg" viewBox="0 0 453.66 374.23"><defs><style>.cls-1{fill:#f6d365;}</style></defs><g id="Layer_3" data-name="Layer 3"><path class="cls-1" d="M419.4,407.63H94.61a7,7,0,0,1-7-7V338.2a7,7,0,0,1,5.73-6.88c1-.18,24.34-4.38,56.6-1.3,28.78,2.75,70.12,12.08,106.28,40.63a277,277,0,0,1,47.17-23.89c28.57-11.26,72.13-22.71,117.43-13.39a7,7,0,0,1,5.58,6.86v60.4a7,7,0,0,1-7,7Zm-317.79-14H412.4V346c-78.4-13-151.77,38.51-152.52,39.05a7,7,0,0,1-8.57-.34C217.1,356,176.81,346.7,149,344a228.54,228.54,0,0,0-47.43.28Z" transform="translate(-17.26 -82.15)"/><path class="cls-1" d="M433.64,456.38H78.53a7,7,0,0,1-7-7V404.74a7,7,0,0,1,7-7H433.64a7,7,0,0,1,7,7v44.64A7,7,0,0,1,433.64,456.38Zm-348.11-14H426.64V411.74H85.53Z" transform="translate(-17.26 -82.15)"/><path class="cls-1" d="M327.92,352.71a7,7,0,0,1-7-7V307.6a7.06,7.06,0,0,1,.67-3l13.88-29.24a109.61,109.61,0,0,0,10.59-45l.68-34.8v-.32l1.26-77.4a15.24,15.24,0,0,0-30.46-.88,7,7,0,1,1-14-.38l.08-4a15.24,15.24,0,0,0-30.21-3.1,7,7,0,0,1-13.83-.39,15.1,15.1,0,0,0-14.82-12.88h-.31c-8.4,0-12.48,6.72-13.43,12.53a7,7,0,0,1-13.89-.69l-.16-2.54c-6.42-8.63-6.81-9.15-15-9.31-3.55,0-7.35,2-10.42,5.59a21.74,21.74,0,0,0-5.21,13.07l-1.11,56.87a4.57,4.57,0,0,1,0,.74l-1.45,11.33a7,7,0,0,1-13.93-.57H126.51c-1.57,9.85.37,15.76,12.59,25.54,17.69,14.14,33.42,37.94,34.08,38.95a6.78,6.78,0,0,1,.63,1.19c6.75,16.51,16.63,38,23.74,53.1a7.06,7.06,0,0,1,.66,3v39a7,7,0,0,1-14,0V306.5c-7-15-16.45-35.51-23.09-51.68-2.38-3.52-16.2-23.52-30.77-35.17-19-15.22-20.45-27.1-16.41-45a7,7,0,0,1,6.83-5.46h50.54l1.06-54.64A35.57,35.57,0,0,1,180.9,92.7c5.8-6.85,13.6-10.66,21.38-10.54,11.48.22,16.33,3.13,21.65,9.44A26.88,26.88,0,0,1,245,82.16a29.52,29.52,0,0,1,21.79,10.28,29.28,29.28,0,0,1,46,3.75A29.18,29.18,0,0,1,362,118.06l-1.26,77a2.29,2.29,0,0,1,0,.37l-.68,35.15a123.38,123.38,0,0,1-11.94,50.75l-13.2,27.83v36.53a7,7,0,0,1-7,7Z" transform="translate(-17.26 -82.15)"/><path class="cls-1" d="M119.07,183.18H78.53a7,7,0,0,1-7-7v-53a7,7,0,0,1,7-7h97.41a7,7,0,0,1,0,14H85.53v39h33.54a7,7,0,0,1,0,14Z" transform="translate(-17.26 -82.15)"/><path class="cls-1" d="M414.46,183.18H355a7,7,0,0,1,0-14h52.46v-39H355a7,7,0,0,1,0-14h59.46a7,7,0,0,1,7,7v53A7,7,0,0,1,414.46,183.18Z" transform="translate(-17.26 -82.15)"/><path class="cls-1" d="M78.53,183.18a7,7,0,0,1-3.07-.71L21.19,156a7,7,0,0,1,0-12.58L75.46,116.9a7,7,0,1,1,6.33,12.49l-.19.09L40.21,149.66,81.6,169.89a7,7,0,0,1-3.07,13.29Z" transform="translate(-17.26 -82.15)"/><path class="cls-1" d="M463.92,183.18H414.46a7,7,0,0,1-7-7v-53a7,7,0,0,1,7-7h49.46a7,7,0,0,1,7,7v53A7,7,0,0,1,463.92,183.18Zm-42.46-14h35.46v-39H421.46Z" transform="translate(-17.26 -82.15)"/></g></svg>