<svg id="Capa_1" data-name="Capa 1" xmlns="http://www.w3.org/2000/svg" viewBox="0 0 246.06 417.2"><defs><style>.cls-1{fill:#f6d365;}</style></defs><path class="cls-1" d="M299,322.23H195.37a7,7,0,0,1-7-7V233a7,7,0,0,1,7-7H299a7,7,0,0,1,7,7h0v82.22a7,7,0,0,1-7,7Zm-96.61-14H292V240H202.37Z" transform="translate(-127 -41.4)"/><path class="cls-1" d="M223,235a7,7,0,0,1-6.65-4.81l-11.06-33.51a35.53,35.53,0,0,1,67.45-22.37l1.95,5.86a7,7,0,0,1-13.28,4.43l-2-5.86a21.53,21.53,0,0,0-40.87,13.55l11.07,33.51a7,7,0,0,1-4.45,8.85A6.83,6.83,0,0,1,223,235Z" transform="translate(-127 -41.4)"/><path class="cls-1" d="M296,182.39a7,7,0,0,1-5.22-11.65l10.51-11.83a7,7,0,0,1,10.46,9.3L301.21,180A7,7,0,0,1,296,182.39Z" transform="translate(-127 -41.4)"/><path class="cls-1" d="M325.64,225.75a6.68,6.68,0,0,1-1.83-.25l-16-4.31a7,7,0,0,1,3.66-13.52l16,4.33a7,7,0,0,1-1.82,13.76Z" transform="translate(-127 -41.4)"/><path class="cls-1" d="M308.93,199.47a7,7,0,0,1-2.37-13.59l14.64-5.25a7,7,0,0,1,5,13.07l-.27.1-14.65,5.26A7.06,7.06,0,0,1,308.93,199.47Z" transform="translate(-127 -41.4)"/><g id="Layer_11" data-name="Layer 11"><path class="cls-1" d="M141,416.67v-7.18H359v7.16a28,28,0,0,1-27.92,27.93H168.89A28,28,0,0,1,141,416.67ZM290.3,56.44a21.77,21.77,0,0,1-20.56,14.72H225.81a21.78,21.78,0,0,1-20.56-14.72ZM373,401.66V83.33A42,42,0,0,0,331.05,41.4H168.9A42,42,0,0,0,127,83.33V416.67a42,42,0,0,0,41.9,41.93H331.05A42,42,0,0,0,373,416.67V403.36a6.05,6.05,0,0,0,0-1.7Zm-14-150c-.2-.08-.2,15.27,0,15.33v45.08c-.2.1-.2,15.48,0,15.4v68.06H141l-.5-34.13L141,83.33A28,28,0,0,1,168.9,55.4h21.71a35.76,35.76,0,0,0,35.21,29.75h43.92A35.76,35.76,0,0,0,305,55.4h26.1A28,28,0,0,1,359,83.33Z" transform="translate(-127 -41.4)"/></g></svg>