<svg id="Capa_1" data-name="Capa 1" xmlns="http://www.w3.org/2000/svg" viewBox="0 0 399.19 467.96"><defs><style>.cls-1{fill:#f6d365;}</style></defs><g id="Layer_3" data-name="Layer 3"><path class="cls-1" d="M351.7,416.34H79.51A63.56,63.56,0,0,1,16,352.85V188.78a63.56,63.56,0,0,1,63.49-63.49h36a7,7,0,1,1,0,14h-36A49.54,49.54,0,0,0,30,188.78V352.85a49.54,49.54,0,0,0,49.49,49.49H351.7a49.54,49.54,0,0,0,49.49-49.49V188.78a49.54,49.54,0,0,0-49.49-49.49H318.57a7,7,0,0,1,0-14H351.7a63.56,63.56,0,0,1,63.49,63.49V352.85A63.56,63.56,0,0,1,351.7,416.34Z" transform="translate(-16 -22.71)"/><path class="cls-1" d="M408.19,359.85H23a7,7,0,0,1,0-14H408.19a7,7,0,0,1,0,14Z" transform="translate(-16 -22.71)"/><path class="cls-1" d="M314,490.67H122.49a7,7,0,0,1-6-10.62l45.05-74.34a7,7,0,1,1,12,7.26l-38.61,63.7H302.15l-34.89-64a7,7,0,0,1,12.29-6.7l40.54,74.33A7,7,0,0,1,314,490.67Z" transform="translate(-16 -22.71)"/><path class="cls-1" d="M215.73,255a30,30,0,0,1-30-30h0V205.37a7,7,0,0,1,14,0V225a16,16,0,0,0,32,0V205.37a7,7,0,0,1,14,0V225a30,30,0,0,1-30,30Z" transform="translate(-16 -22.71)"/><path class="cls-1" d="M214.73,212.37A62.4,62.4,0,0,1,152.39,150V123.87a62.34,62.34,0,1,1,124.68,0V150A62.4,62.4,0,0,1,214.73,212.37Zm0-136.84a48.39,48.39,0,0,0-48.34,48.34V150a48.34,48.34,0,1,0,96.68,0V123.87A48.39,48.39,0,0,0,214.73,75.53Z" transform="translate(-16 -22.71)"/><path class="cls-1" d="M314.29,353.47a7,7,0,0,1-7-6.79l-1.7-56.79v-.6c.42-7.68-3.76-25-16.78-38.76C276.59,237.6,259.74,231,238.73,231a7,7,0,0,1,0-14c24.65,0,45.49,8.25,60.27,23.87,16,16.89,21.06,38.3,20.6,48.83l1.69,56.52a7,7,0,0,1-6.79,7.2Z" transform="translate(-16 -22.71)"/><path class="cls-1" d="M110.27,349.33a7,7,0,0,1-7-7V297c0-42.62,40.09-80,85.8-80a7,7,0,0,1,0,14c-38.25,0-71.8,30.84-71.8,66v45.29a7,7,0,0,1-7,7Z" transform="translate(-16 -22.71)"/><path class="cls-1" d="M169.41,284.28a7,7,0,0,1-7-7v-.18l1.29-49.21a7,7,0,0,1,7-6.81h.19a7,7,0,0,1,6.81,7.18l-.95,36.11L212,242.13a7,7,0,0,1,7.28-.12l34.13,20,1-32.86a7,7,0,1,1,14,.4l-1.29,44.68a7,7,0,0,1-10.54,5.84l-40.65-23.85-42.72,27A7,7,0,0,1,169.41,284.28Z" transform="translate(-16 -22.71)"/><path class="cls-1" d="M241.51,353.47a7,7,0,0,1-6.86-5.67l-13.84-71.12a7,7,0,0,1,1-5.14l7.13-11a7,7,0,0,1,11.75,7.61l-5.59,8.64,13.3,68.35a7,7,0,0,1-5.53,8.21h0A7.61,7.61,0,0,1,241.51,353.47Z" transform="translate(-16 -22.71)"/><path class="cls-1" d="M189.08,354.12a6.78,6.78,0,0,1-1.73-.22,7,7,0,0,1-5.06-8.51h0l17.22-67.87-5.22-9.93a7,7,0,0,1,12.39-6.51l6.47,12.3a7,7,0,0,1,.6,5l-17.89,70.48A7,7,0,0,1,189.08,354.12Z" transform="translate(-16 -22.71)"/><path class="cls-1" d="M149.47,173.45h-1.16a39.81,39.81,0,0,1,0-79.62h1.16a16.93,16.93,0,0,1,16.92,16.91v45.79A16.94,16.94,0,0,1,149.47,173.45Zm-1.16-65.62a25.81,25.81,0,0,0,0,51.62h1.16a2.92,2.92,0,0,0,2.92-2.92V110.74a2.91,2.91,0,0,0-2.91-2.91h-1.17Z" transform="translate(-16 -22.71)"/><path class="cls-1" d="M281.14,173.45H280a16.94,16.94,0,0,1-16.91-16.92V110.74A16.93,16.93,0,0,1,280,93.83h1.16a39.81,39.81,0,1,1,0,79.62h0ZM280,107.83a2.91,2.91,0,0,0-2.91,2.91h0v45.79a2.92,2.92,0,0,0,2.91,2.92h1.16a25.81,25.81,0,1,0,0-51.62H280Z" transform="translate(-16 -22.71)"/><path class="cls-1" d="M281.15,107.83c-.23,0-.45,0-.68,0a7,7,0,0,1-6.3-7.64h0l.4-4.14a59.63,59.63,0,1,0-119.26.33v4.49a7,7,0,0,1-14,0V96.34a73.63,73.63,0,0,1,147.26,0V97l-.43,4.49A7,7,0,0,1,281.15,107.83Z" transform="translate(-16 -22.71)"/><path class="cls-1" d="M275.5,192.86H221.21a7,7,0,0,1,0-14H275.5a6.6,6.6,0,0,0,6.59-6.59v-6.8a7,7,0,1,1,14,0v6.8A20.6,20.6,0,0,1,275.5,192.86Z" transform="translate(-16 -22.71)"/><path class="cls-1" d="M211.75,161.09a7,7,0,0,1-7-7V133.64a7,7,0,0,1,14,0v20.45A7,7,0,0,1,211.75,161.09Z" transform="translate(-16 -22.71)"/></g></svg>